{
  "asset": {
    "version": "2.0",
    "generator": "THREE.GLTFExporter"
  },
  "scenes": [
    {
      "name": "Scene",
      "nodes": [
        5
      ]
    }
  ],
  "scene": 0,
  "nodes": [
    {
      "rotation": [
        -0.7071067811865475,
        0,
        0,
        0.7071067811865476
      ],
      "translation": [
        -150.0126953125,
        18.81640625,
        26.06719970703125
      ],
      "name": "ROADS",
      "extras": {
        "transformData": {
          "inheritType": 1,
          "eulerOrder": "ZYX",
          "translation": [
            -150.0126953125,
            18.81640625,
            26.06719970703125
          ],
          "preRotation": [
            -90,
            0,
            0
          ],
          "parentMatrix": {
            "elements": [
              1,
              0,
              0,
              0,
              0,
              1,
              0,
              0,
              0,
              0,
              1,
              0,
              0,
              0,
              0,
              1
            ]
          },
          "parentMatrixWorld": {
            "elements": [
              1,
              0,
              0,
              0,
              0,
              1,
              0,
              0,
              0,
              0,
              1,
              0,
              0,
              0,
              0,
              1
            ]
          }
        }
      },
      "mesh": 0
    },
    {
      "rotation": [
        -0.7071067811865475,
        0,
        0,
        0.7071067811865476
      ],
      "translation": [
        -150.0126953125,
        18.81640625,
        26.06719970703125
      ],
      "name": "LANDMASS",
      "extras": {
        "transformData": {
          "inheritType": 1,
          "eulerOrder": "ZYX",
          "translation": [
            -150.0126953125,
            18.81640625,
            26.06719970703125
          ],
          "preRotation": [
            -90,
            0,
            0
          ],
          "parentMatrix": {
            "elements": [
              1,
              0,
              0,
              0,
              0,
              1,
              0,
              0,
              0,
              0,
              1,
              0,
              0,
              0,
              0,
              1
            ]
          },
          "parentMatrixWorld": {
            "elements": [
              1,
              0,
              0,
              0,
              0,
              1,
              0,
              0,
              0,
              0,
              1,
              0,
              0,
              0,
              0,
              1
            ]
          }
        }
      },
      "mesh": 1
    },
    {
      "rotation": [
        -0.7071067811865475,
        0,
        0,
        0.7071067811865476
      ],
      "translation": [
        -153.939208984375,
        14.0777587890625,
        26.572601318359375
      ],
      "name": "chair",
      "extras": {
        "transformData": {
          "inheritType": 1,
          "eulerOrder": "ZYX",
          "translation": [
            -153.939208984375,
            14.0777587890625,
            26.572601318359375
          ],
          "preRotation": [
            -90,
            0,
            0
          ],
          "parentMatrix": {
            "elements": [
              1,
              0,
              0,
              0,
              0,
              1,
              0,
              0,
              0,
              0,
              1,
              0,
              0,
              0,
              0,
              1
            ]
          },
          "parentMatrixWorld": {
            "elements": [
              1,
              0,
              0,
              0,
              0,
              1,
              0,
              0,
              0,
              0,
              1,
              0,
              0,
              0,
              0,
              1
            ]
          }
        }
      },
      "mesh": 2
    },
    {
      "rotation": [
        -0.7071067811865475,
        0,
        0,
        0.7071067811865476
      ],
      "translation": [
        -170.28466796875,
        18.81640625,
        338.7069091796875
      ],
      "name": "CITY_UNTRIANGULATED",
      "extras": {
        "transformData": {
          "inheritType": 1,
          "eulerOrder": "ZYX",
          "translation": [
            -170.28466796875,
            18.81640625,
            338.7069091796875
          ],
          "preRotation": [
            -90,
            0,
            0
          ],
          "parentMatrix": {
            "elements": [
              1,
              0,
              0,
              0,
              0,
              1,
              0,
              0,
              0,
              0,
              1,
              0,
              0,
              0,
              0,
              1
            ]
          },
          "parentMatrixWorld": {
            "elements": [
              1,
              0,
              0,
              0,
              0,
              1,
              0,
              0,
              0,
              0,
              1,
              0,
              0,
              0,
              0,
              1
            ]
          }
        }
      },
      "mesh": 3
    },
    {
      "rotation": [
        -0.7071067811865475,
        0,
        0,
        0.7071067811865476
      ],
      "translation": [
        -150.0126953125,
        8.74371337890625,
        26.06719970703125
      ],
      "name": "drive",
      "extras": {
        "transformData": {
          "inheritType": 1,
          "eulerOrder": "ZYX",
          "translation": [
            -150.0126953125,
            8.74371337890625,
            26.06719970703125
          ],
          "preRotation": [
            -90,
            0,
            0
          ],
          "parentMatrix": {
            "elements": [
              1,
              0,
              0,
              0,
              0,
              1,
              0,
              0,
              0,
              0,
              1,
              0,
              0,
              0,
              0,
              1
            ]
          },
          "parentMatrixWorld": {
            "elements": [
              1,
              0,
              0,
              0,
              0,
              1,
              0,
              0,
              0,
              0,
              1,
              0,
              0,
              0,
              0,
              1
            ]
          }
        }
      },
      "mesh": 4
    },
    {
      "children": [
        0,
        1,
        2,
        3,
        4
      ]
    }
  ],
  "bufferViews": [
    {
      "buffer": 0,
      "byteOffset": 0,
      "byteLength": 88308,
      "target": 34962,
      "byteStride": 12
    },
    {
      "buffer": 0,
      "byteOffset": 88308,
      "byteLength": 88308,
      "target": 34962,
      "byteStride": 12
    },
    {
      "buffer": 0,
      "byteOffset": 176616,
      "byteLength": 9108,
      "target": 34962,
      "byteStride": 12
    },
    {
      "buffer": 0,
      "byteOffset": 185724,
      "byteLength": 9108,
      "target": 34962,
      "byteStride": 12
    },
    {
      "buffer": 0,
      "byteOffset": 194832,
      "byteLength": 38880,
      "target": 34962,
      "byteStride": 12
    },
    {
      "buffer": 0,
      "byteOffset": 233712,
      "byteLength": 38880,
      "target": 34962,
      "byteStride": 12
    },
    {
      "buffer": 0,
      "byteOffset": 272592,
      "byteLength": 25920,
      "target": 34962,
      "byteStride": 8
    },
    {
      "buffer": 0,
      "byteOffset": 298512,
      "byteLength": 1049364,
      "target": 34962,
      "byteStride": 12
    },
    {
      "buffer": 0,
      "byteOffset": 1347876,
      "byteLength": 1049364,
      "target": 34962,
      "byteStride": 12
    },
    {
      "buffer": 0,
      "byteOffset": 2397240,
      "byteLength": 699576,
      "target": 34962,
      "byteStride": 8
    },
    {
      "buffer": 0,
      "byteOffset": 3096816,
      "byteLength": 432,
      "target": 34962,
      "byteStride": 12
    },
    {
      "buffer": 0,
      "byteOffset": 3097248,
      "byteLength": 432,
      "target": 34962,
      "byteStride": 12
    },
    {
      "buffer": 0,
      "byteOffset": 3097680,
      "byteLength": 288,
      "target": 34962,
      "byteStride": 8
    },
    {
      "buffer": 0,
      "byteOffset": 3097968,
      "byteLength": 4
    },
    {
      "buffer": 0,
      "byteOffset": 3097972,
      "byteLength": 16
    },
    {
      "buffer": 0,
      "byteOffset": 3097988,
      "byteLength": 4
    },
    {
      "buffer": 0,
      "byteOffset": 3097992,
      "byteLength": 16
    },
    {
      "buffer": 0,
      "byteOffset": 3098008,
      "byteLength": 4
    },
    {
      "buffer": 0,
      "byteOffset": 3098012,
      "byteLength": 16
    },
    {
      "buffer": 0,
      "byteOffset": 3098028,
      "byteLength": 4
    },
    {
      "buffer": 0,
      "byteOffset": 3098032,
      "byteLength": 16
    },
    {
      "buffer": 0,
      "byteOffset": 3098048,
      "byteLength": 4
    },
    {
      "buffer": 0,
      "byteOffset": 3098052,
      "byteLength": 16
    }
  ],
  "buffers": [
    {
      "byteLength": 3098068,
      "uri": "data:application/octet-stream;base64,"
    }
  ],
  "accessors": [
    {
      "bufferView": 0,
      "componentType": 5126,
      "count": 7359,
      "max": [
        1209.235107421875,
        763.6763916015625,
        0.267559677362442
      ],
      "min": [
        -1200.7464599609375,
        -1493.720947265625,
        0.25164392590522766
      ],
      "type": "VEC3"
    },
    {
      "bufferView": 1,
      "componentType": 5126,
      "count": 7359,
      "max": [
        0,
        0,
        1
      ],
      "min": [
        0,
        0,
        1
      ],
      "type": "VEC3"
    },
    {
      "bufferView": 2,
      "componentType": 5126,
      "count": 759,
      "max": [
        1270.4466552734375,
        1538.772705078125,
        -0.15638163685798645
      ],
      "min": [
        -2756.102783203125,
        -2006.3760986328125,
        -0.20975293219089508
      ],
      "type": "VEC3"
    },
    {
      "bufferView": 3,
      "componentType": 5126,
      "count": 759,
      "max": [
        0,
        0,
        1
      ],
      "min": [
        0,
        0,
        1
      ],
      "type": "VEC3"
    },
    {
      "bufferView": 4,
      "componentType": 5126,
      "count": 3240,
      "max": [
        2.465946912765503,
        -0.0013824377674609423,
        5.168129920959473
      ],
      "min": [
        0.32632964849472046,
        -2.3055052757263184,
        1.4142334461212158
      ],
      "type": "VEC3"
    },
    {
      "bufferView": 5,
      "componentType": 5126,
      "count": 3240,
      "max": [
        0.9966976046562195,
        0.9997613430023193,
        1
      ],
      "min": [
        -0.9966913461685181,
        -0.9997613430023193,
        -1
      ],
      "type": "VEC3"
    },
    {
      "bufferView": 6,
      "componentType": 5126,
      "count": 3240,
      "max": [
        0.9863036274909973,
        0.9929035305976868
      ],
      "min": [
        0.007096460089087486,
        0.007096529006958008
      ],
      "type": "VEC2"
    },
    {
      "bufferView": 7,
      "componentType": 5126,
      "count": 87447,
      "max": [
        997.9194946289062,
        1378.6939697265625,
        390.1632080078125
      ],
      "min": [
        -1138.6883544921875,
        -1655.66259765625,
        -5.424463748931885
      ],
      "type": "VEC3"
    },
    {
      "bufferView": 8,
      "componentType": 5126,
      "count": 87447,
      "max": [
        1,
        1,
        1
      ],
      "min": [
        -1,
        -1,
        -1
      ],
      "type": "VEC3"
    },
    {
      "bufferView": 9,
      "componentType": 5126,
      "count": 87447,
      "max": [
        1326.0975341796875,
        1883.2901611328125
      ],
      "min": [
        -1326.0975341796875,
        -1883.2901611328125
      ],
      "type": "VEC2"
    },
    {
      "bufferView": 10,
      "componentType": 5126,
      "count": 36,
      "max": [
        0.002028369577601552,
        0.0003341447445563972,
        0.0018081138841807842
      ],
      "min": [
        -0.002427878323942423,
        -0.0003341447445563972,
        -0.0018081138841807842
      ],
      "type": "VEC3"
    },
    {
      "bufferView": 11,
      "componentType": 5126,
      "count": 36,
      "max": [
        1,
        1,
        1
      ],
      "min": [
        -1,
        -1,
        -1
      ],
      "type": "VEC3"
    },
    {
      "bufferView": 12,
      "componentType": 5126,
      "count": 36,
      "max": [
        0.9913793206214905,
        0.991525411605835
      ],
      "min": [
        0.008620688691735268,
        0.008474588394165039
      ],
      "type": "VEC2"
    },
    {
      "bufferView": 13,
      "componentType": 5126,
      "count": 1,
      "max": [
        0
      ],
      "min": [
        0
      ],
      "type": "SCALAR"
    },
    {
      "bufferView": 14,
      "componentType": 5126,
      "count": 1,
      "max": [
        -0.7071067690849304,
        0,
        0,
        0.7071067690849304
      ],
      "min": [
        -0.7071067690849304,
        0,
        0,
        0.7071067690849304
      ],
      "type": "VEC4"
    },
    {
      "bufferView": 15,
      "componentType": 5126,
      "count": 1,
      "max": [
        0
      ],
      "min": [
        0
      ],
      "type": "SCALAR"
    },
    {
      "bufferView": 16,
      "componentType": 5126,
      "count": 1,
      "max": [
        -0.7071067690849304,
        0,
        0,
        0.7071067690849304
      ],
      "min": [
        -0.7071067690849304,
        0,
        0,
        0.7071067690849304
      ],
      "type": "VEC4"
    },
    {
      "bufferView": 17,
      "componentType": 5126,
      "count": 1,
      "max": [
        0
      ],
      "min": [
        0
      ],
      "type": "SCALAR"
    },
    {
      "bufferView": 18,
      "componentType": 5126,
      "count": 1,
      "max": [
        -0.7071067690849304,
        0,
        0,
        0.7071067690849304
      ],
      "min": [
        -0.7071067690849304,
        0,
        0,
        0.7071067690849304
      ],
      "type": "VEC4"
    },
    {
      "bufferView": 19,
      "componentType": 5126,
      "count": 1,
      "max": [
        0
      ],
      "min": [
        0
      ],
      "type": "SCALAR"
    },
    {
      "bufferView": 20,
      "componentType": 5126,
      "count": 1,
      "max": [
        -0.7071067690849304,
        0,
        0,
        0.7071067690849304
      ],
      "min": [
        -0.7071067690849304,
        0,
        0,
        0.7071067690849304
      ],
      "type": "VEC4"
    },
    {
      "bufferView": 21,
      "componentType": 5126,
      "count": 1,
      "max": [
        0
      ],
      "min": [
        0
      ],
      "type": "SCALAR"
    },
    {
      "bufferView": 22,
      "componentType": 5126,
      "count": 1,
      "max": [
        -0.7071067690849304,
        0,
        0,
        0.7071067690849304
      ],
      "min": [
        -0.7071067690849304,
        0,
        0,
        0.7071067690849304
      ],
      "type": "VEC4"
    }
  ],
  "materials": [
    {
      "pbrMetallicRoughness": {
        "baseColorFactor": [
          0.125490203499794,
          0.14509804546833038,
          0.25882354378700256,
          1
        ],
        "metallicFactor": 0.5,
        "roughnessFactor": 0.5
      },
      "name": ""
    },
    {
      "pbrMetallicRoughness": {
        "baseColorFactor": [
          0.4392157196998596,
          0.4392157196998596,
          0.4392157196998596,
          1
        ],
        "metallicFactor": 0.5,
        "roughnessFactor": 0.5
      },
      "name": ".001"
    },
    {
      "pbrMetallicRoughness": {
        "baseColorFactor": [
          0.800000011920929,
          0.800000011920929,
          0.800000011920929,
          1
        ],
        "metallicFactor": 0.5,
        "roughnessFactor": 0.5
      },
      "name": "smallminer_bake1_chair"
    },
    {
      "pbrMetallicRoughness": {
        "baseColorFactor": [
          0.7960785031318665,
          0.7960785031318665,
          0.7960785031318665,
          1
        ],
        "metallicFactor": 0.5,
        "roughnessFactor": 0.5
      },
      "name": ".004"
    },
    {
      "pbrMetallicRoughness": {
        "baseColorFactor": [
          0.800000011920929,
          0.800000011920929,
          0.800000011920929,
          1
        ],
        "metallicFactor": 0.5,
        "roughnessFactor": 0.5
      },
      "name": "Mat.2"
    }
  ],
  "meshes": [
    {
      "primitives": [
        {
          "mode": 4,
          "attributes": {
            "POSITION": 0,
            "NORMAL": 1
          },
          "material": 0
        }
      ]
    },
    {
      "primitives": [
        {
          "mode": 4,
          "attributes": {
            "POSITION": 2,
            "NORMAL": 3
          },
          "material": 1
        }
      ]
    },
    {
      "primitives": [
        {
          "mode": 4,
          "attributes": {
            "POSITION": 4,
            "NORMAL": 5,
            "TEXCOORD_0": 6
          },
          "material": 2
        }
      ]
    },
    {
      "primitives": [
        {
          "mode": 4,
          "attributes": {
            "POSITION": 7,
            "NORMAL": 8,
            "TEXCOORD_0": 9
          },
          "material": 3
        }
      ]
    },
    {
      "primitives": [
        {
          "mode": 4,
          "attributes": {
            "POSITION": 10,
            "NORMAL": 11,
            "TEXCOORD_0": 12
          },
          "material": 4
        }
      ]
    }
  ],
  "animations": [
    {
      "name": "Take 001",
      "samplers": [
        {
          "input": 13,
          "output": 14,
          "interpolation": "LINEAR"
        },
        {
          "input": 15,
          "output": 16,
          "interpolation": "LINEAR"
        },
        {
          "input": 17,
          "output": 18,
          "interpolation": "LINEAR"
        },
        {
          "input": 19,
          "output": 20,
          "interpolation": "LINEAR"
        },
        {
          "input": 21,
          "output": 22,
          "interpolation": "LINEAR"
        }
      ],
      "channels": [
        {
          "sampler": 0,
          "target": {
            "node": 0,
            "path": "rotation"
          }
        },
        {
          "sampler": 1,
          "target": {
            "node": 1,
            "path": "rotation"
          }
        },
        {
          "sampler": 2,
          "target": {
            "node": 2,
            "path": "rotation"
          }
        },
        {
          "sampler": 3,
          "target": {
            "node": 3,
            "path": "rotation"
          }
        },
        {
          "sampler": 4,
          "target": {
            "node": 4,
            "path": "rotation"
          }
        }
      ]
    }
  ]
}